<svg height="480pt" viewBox="0 0 480 480" width="480pt" xmlns="http://www.w3.org/2000/svg"><path d="m464 144c0-.511719-.078125-1-.097656-1.511719 10.265625-13.339843 15.917968-29.65625 16.097656-46.488281 0-52.9375-57.425781-96-128-96s-128 43.0625-128 96c.039062 2.675781.226562 5.347656.558594 8h-168.558594c-22.082031.027344-39.972656 17.917969-40 40v256h-16v40c.0273438 22.082031 17.917969 39.972656 40 40h400c22.082031-.027344 39.972656-17.917969 40-40v-40h-16zm-112-128c61.761719 0 112 35.886719 112 80s-50.238281 80-112 80h-2.398438c-1.101562.003906-2.191406.234375-3.203124.671875l-80.0625 35.136719 17.0625-44.886719c1.375-3.621094-.035157-7.703125-3.351563-9.699219-25.445313-15.34375-40.046875-37.65625-40.046875-61.222656 0-44.113281 50.238281-80 112-80zm-85.863281 151.3125-21.535157 56.6875c-.933593 2.457031-.601562 5.21875.894532 7.382812 1.492187 2.164063 3.953125 3.457032 6.582031 3.457032 1.101563-.003906 2.191406-.234375 3.203125-.671875l96-42.167969h.71875c21.996094.097656 43.78125-4.324219 64-12.992188v188.992188h-352v-216h183.910156c5.511719 5.738281 11.621094 10.875 18.226563 15.3125zm-234.136719-23.3125c0-13.253906 10.746094-24 24-24h172.175781c1.878907 5.585938 4.363281 10.953125 7.410157 16h-187.585938v248h384v-213.175781c5.636719-3.40625 10.988281-7.261719 16-11.535157v240.710938h-162.566406l-23.832032 16h-43.371093l-23.75-16h-162.480469zm432 296c0 13.253906-10.746094 24-24 24h-400c-13.253906 0-24-10.746094-24-24v-24h173.601562l23.742188 16h53.054688l23.875-16h173.726562zm0 0"/><path d="m168 248c22.089844 0 40-17.910156 40-40s-17.910156-40-40-40-40 17.910156-40 40c.027344 22.082031 17.917969 39.972656 40 40zm0-64c13.253906 0 24 10.746094 24 24s-10.746094 24-24 24-24-10.746094-24-24 10.746094-24 24-24zm0 0"/><path d="m240 296c-.027344-22.082031-17.917969-39.972656-40-40h-64c-22.082031.027344-39.972656 17.917969-40 40v56h144zm-16 40h-112v-40c0-13.253906 10.746094-24 24-24h64c13.253906 0 24 10.746094 24 24zm0 0"/></svg>