<svg width="507" height="507" viewBox="0 0 507 507" fill="none" xmlns="http://www.w3.org/2000/svg">
<g clip-path="url(#clip0)">
<path d="M463.285 397.056L438.302 417.053L458.299 442.035L483.282 422.038L463.285 397.056Z" fill="white"/>
<path d="M422.782 346.384V240L406.782 174.032V48H390.782C367.134 48.006 344.329 56.786 326.782 72.64V0H70.782V96C44.387 95.883 22.896 117.185 22.779 143.58C22.726 155.57 27.182 167.142 35.262 176C18.621 194.088 18.621 221.912 35.262 240C18.621 258.088 18.621 285.912 35.262 304C17.474 323.5 18.862 353.729 38.362 371.517C47.22 379.597 58.792 384.053 70.782 384V432H147.662L259.294 477.264L282.286 506.064L307.278 486.064L279.07 450.864L232.846 432H326.782V144C326.816 114.828 346.544 89.358 374.782 82.032V176L390.782 241.968V357.616L418.302 392L443.294 372L422.782 346.384ZM70.782 128H86.782C95.619 128 102.782 135.163 102.782 144C102.782 152.837 95.619 160 86.782 160H70.782C61.945 160 54.782 152.837 54.782 144C54.782 135.163 61.946 128 70.782 128ZM70.782 192H118.782C127.619 192 134.782 199.163 134.782 208C134.782 216.837 127.619 224 118.782 224H70.782C61.945 224 54.782 216.837 54.782 208C54.782 199.163 61.946 192 70.782 192ZM70.782 256H86.782C95.619 256 102.782 263.163 102.782 272C102.782 280.837 95.619 288 86.782 288H70.782C61.945 288 54.782 280.837 54.782 272C54.782 263.163 61.946 256 70.782 256ZM86.782 352H70.782C61.945 352 54.782 344.837 54.782 336C54.782 327.163 61.945 320 70.782 320H86.782C95.619 320 102.782 327.163 102.782 336C102.782 344.837 95.619 352 86.782 352ZM294.782 144V400H102.782V381.056C127.601 372.47 140.76 345.389 132.174 320.571C130.05 314.431 126.69 308.792 122.302 304.001C134.709 290.528 138.201 271.095 131.262 254.145C156.747 247.41 171.947 221.292 165.212 195.807C160.825 179.208 147.861 166.243 131.262 161.857C141.183 137.531 129.505 109.769 105.179 99.848C104.388 99.526 103.589 99.224 102.782 98.945V32H294.782V144Z" fill="white"/>
<path d="M214.782 64H182.782V96H214.782V64Z" fill="white"/>
</g>
<defs>
<clipPath id="clip0">
<rect width="506.064" height="506.064" fill="white"/>
</clipPath>
</defs>
</svg>
