<svg enable-background="new 0 0 52 57" height="512" viewBox="0 0 52 57" width="512" xmlns="http://www.w3.org/2000/svg"><path d="m47 57h-36c-2.757 0-5-2.243-5-5v-24c0-.552.448-1 1-1s1 .448 1 1v24c0 1.654 1.346 3 3 3h36c1.654 0 3-1.346 3-3v-36c0-1.654-1.346-3-3-3h-5c-.552 0-1-.448-1-1s.448-1 1-1h5c2.757 0 5 2.243 5 5v36c0 2.757-2.243 5-5 5z"/><path d="m42 37c-.375 0-.726-.211-.897-.559-4.687-9.533-10.02-15.441-22.103-15.441h-1v6c0 .386-.222.737-.57.903-.348.167-.761.117-1.06-.127l-16-13c-.234-.189-.37-.474-.37-.776s.136-.586.369-.776l16-13c.299-.244.712-.293 1.06-.127.349.166.571.518.571.903v6h1c12.465 0 24 3.513 24 29 0 .465-.321.869-.773.974-.076.018-.152.026-.227.026zm-25-18h2c11.35 0 17.318 4.986 21.892 12.802-1.019-18.859-9.201-22.802-21.892-22.802h-2c-.552 0-1-.448-1-1v-4.899l-13.414 10.899 13.414 10.899v-4.899c0-.552.448-1 1-1z"/></svg>