<svg width="500" height="500" viewBox="0 0 500 500" fill="none" xmlns="http://www.w3.org/2000/svg">
<path d="M105.43 340.1V322.921H39.9282L16.6485 229.818L0 233.999L26.5096 340.1H39.9438L22.7337 378.031L33.1409 382.743L52.4887 340.1H80.9019L99.4851 382.665L109.986 378.062L93.3843 340.1H105.43Z" fill="white"/>
<path d="M473.49 339.351L500 233.266L483.367 229.099L460.071 322.219H394.57V339.351H406.631L390.014 377.375L400.499 381.947L419.113 339.351H447.527L466.859 382.01L477.266 377.313L460.071 339.351H473.49Z" fill="white"/>
<path d="M154.533 294.523V385.973H161.274V294.523H158.887H154.533Z" fill="white"/>
<path d="M398.377 317.038H422.094H429.942H435.309H449.024L426.26 204.15H388.5L366.406 238.976V230.176H297.628V251.162H285.223V230.067H216.414V251.162H198.502V230.067H129.708V233.562L111.499 204.868H73.7396L50.9747 317.756H64.7054H70.0573H77.9212H101.622H103.089H116.164H124.512V294.508H112.7H98.5173L114.604 242.3L120.143 251.178H115.93V269.48H127.367V294.523V317.772V385.973H131.377H151.677V294.523V269.48H351.131V293.805V385.988H368.606H375.44V317.085V293.837V269.48H385.676V251.178H379.435L385.395 241.598L401.466 293.805H387.314H378.311V317.054H383.835H396.91H398.377V317.038ZM195.615 248.291H172.07L166.375 234.639L149.539 241.379V235.403H146.59V242.549L144.297 243.486V235.403H141.332V244.64L137.681 246.122L132.594 238.118V232.969H195.615V248.291V248.291ZM282.306 248.291H219.301V232.969H282.306V248.291ZM308.254 248.432H300.483V233.094H308.254V248.432ZM314.791 246.559H312.045V235.965H314.791V246.559ZM320.049 246.559H317.288V235.965H320.049V246.559ZM363.504 243.532L362.318 245.373L355.952 242.846V235.887H353.019V241.66L333.609 233.936L327.601 248.416H325.386V233.078H363.488L363.504 243.532Z" fill="white"/>
<path d="M338.742 293.79V385.973H348.26V293.79H341.129H338.742Z" fill="white"/>
<path d="M285.208 183.336H216.414V204.462H285.208V183.336ZM227.071 201.545H219.301V186.223H227.071V201.545ZM233.609 199.704H230.863V189.125H233.609V199.704ZM238.867 199.704H236.105V189.125H238.867V199.704ZM282.306 201.545H244.203V186.223H282.306V201.545Z" fill="white"/>
<path d="M274.786 189.062H271.821V199.766H274.786V189.062Z" fill="white"/>
<path d="M285.208 206.538H275.004H267.124H216.414V227.649H285.208V206.538ZM227.227 224.762H219.301V209.424H227.227V224.762V224.762ZM236.059 222.422H233.094V211.702H236.059V222.422ZM240.927 222.437H237.978V211.749H240.927V222.437ZM267.124 224.762H246.809V209.424H267.124V224.762ZM272.601 222.422H269.621V211.702H272.601V222.422ZM282.306 224.762H275.004V209.424H282.306V224.762Z" fill="white"/>
<path d="M273.583 235.388H270.65V246.091H273.583V235.388Z" fill="white"/>
<path d="M268.716 235.388H265.751V246.076H268.716V235.388Z" fill="white"/>
<path d="M236.247 235.388H233.282V246.076H236.247V235.388Z" fill="white"/>
<path d="M230.988 235.388H228.039V246.091H230.988V235.388Z" fill="white"/>
<path d="M186.877 235.388H183.928V246.091H186.877V235.388Z" fill="white"/>
<path d="M182.009 235.388H179.045V246.076H182.009V235.388Z" fill="white"/>
<path d="M90.8875 147.589C90.2478 148.931 89.5769 150.32 89.0932 151.724C88.5158 153.518 88.079 155.422 87.7825 157.341C86.035 168.731 90.0762 179.591 97.6436 187.158C97.8465 187.377 98.0025 187.595 98.2053 187.814C98.7983 188.375 99.4692 188.828 100.093 189.358C101.295 190.404 102.543 191.387 103.885 192.245C103.932 192.276 103.994 192.292 104.041 192.339C107.786 194.664 112.014 196.255 116.555 196.926C116.664 196.942 116.789 197.004 116.913 197.02C117.319 197.082 117.694 197.035 118.099 197.082C119.223 197.191 120.362 197.41 121.532 197.41C121.922 197.41 122.265 197.316 122.64 197.3C124.465 197.269 126.228 197.066 127.992 196.77C128.085 196.723 128.194 196.723 128.304 196.708C142.534 194.133 154.252 182.961 156.576 167.873C157.154 164.082 156.92 160.368 156.327 156.795L164.784 148.229L152.956 141.894L157.357 129.49L141.395 131.518L136.62 115.712L121.485 127.305L113.169 114.027L106.038 128.772L90.6379 120.97L94.6478 135.59L82.337 137.104L90.8875 147.589Z" fill="white"/>
<path d="M342.736 156.811C342.128 160.384 341.909 164.097 342.486 167.889C345.42 186.893 363.16 199.922 382.149 197.004C385.426 196.505 388.453 195.428 391.324 194.102C391.371 194.086 391.402 194.055 391.464 194.039C393.072 193.306 394.632 192.495 396.083 191.527C397.487 190.638 398.767 189.639 400.015 188.563C400.202 188.391 400.389 188.251 400.592 188.079C406.771 182.509 410.765 174.707 411.405 165.923C411.468 165.252 411.577 164.596 411.608 163.91C411.608 163.785 411.639 163.66 411.639 163.535C411.639 163.099 411.53 162.677 411.499 162.24C411.483 160.618 411.499 159.011 411.218 157.357C410.921 155.437 410.485 153.534 409.907 151.74C409.439 150.335 408.768 148.962 408.144 147.62L416.679 137.119L404.384 135.622L408.394 121.001L393.009 128.803L385.863 114.027L377.562 127.321L362.427 115.728L357.637 131.518L341.706 129.49L346.091 141.894L334.279 148.229L342.736 156.811Z" fill="white"/>
</svg>
